<?xml version="1.0" encoding="utf-8"?>
<!-- Generator: Adobe Illustrator 28.0.0, SVG Export Plug-In . SVG Version: 6.00 Build 0)  -->
<svg version="1.1" id="Layer_1" xmlns="http://www.w3.org/2000/svg" xmlns:xlink="http://www.w3.org/1999/xlink" x="0px" y="0px"
	 viewBox="0 0 66.6 62.9" style="enable-background:new 0 0 66.6 62.9;" xml:space="preserve">
<style type="text/css">
	.st0{fill:#009FA1;}
	.st1{fill:#E1C79B;}
	.st2{fill:#FFFFFF;}
	.st3{fill:#DCE0E3;}
	.st4{fill:#D5D5D7;}
	.st5{fill:#9E9FA2;}
</style>
<g transform="translate(0 0)">
	<g>
		<path class="st0" d="M2.1,12.6L66.6,1.3L44.2,62.9L2.1,12.6z"/>
	</g>
	<g transform="translate(34.447 45.62) rotate(21)">
		<g transform="translate(-17.9 -26.388)">
			<g>
				<path class="st1" d="M-12.1-10.7l30,0c1.6,0,2.9,1.3,2.9,2.9l0,44.1c0,1.6-1.3,2.9-2.9,2.9l-30,0c-1.6,0-2.9-1.3-2.9-2.9l0-44.1
					C-15-9.5-13.7-10.7-12.1-10.7z"/>
			</g>
			<g>
				
					<rect x="-18.1" y="0.1" transform="matrix(2.724949e-06 1 -1 2.724949e-06 17.0677 11.2967)" class="st2" width="41.9" height="28.1"/>
				<path class="st2" d="M17,35.2l-28.3,0l0-0.1l0-42l28.3,0l0,0.1L17,35.2z M-11.1,35l28,0l0-41.7l-28,0L-11.1,35z"/>
			</g>
			<g>
				<path class="st3" d="M-7.9,0.4c0,0.2-0.2,0.4-0.4,0.4c-0.2,0-0.4-0.2-0.4-0.4S-8.5,0-8.3,0c0,0,0,0,0,0C-8.1,0-7.9,0.1-7.9,0.4z
					"/>
			</g>
			<g>
				<path class="st3" d="M4.9,3.7c-0.1,0-0.2,0-0.2-0.1C4.5,3.3,4.7,3,5,2.6c0.4-0.5,0.7-1,1.1-1.4L6.3,1l0.4,0.3L6.5,1.5
					C6.1,1.9,5.7,2.4,5.4,2.9c0.2-0.1,0.5-0.4,0.9-0.7L6.5,2l0.3,0.4L6.6,2.6C6.3,2.9,5.9,3.1,5.5,3.4C5.4,3.5,5.2,3.6,4.9,3.7z"/>
			</g>
			<g>
				<path class="st3" d="M9.9-0.7L9.5-1l0.2-0.2c0.4-0.4,0.6-0.7,0.7-0.9C10-1.8,9.5-1.4,9.1-1L8.9-0.9L8.5-1.3l0.2-0.2
					c0.4-0.4,0.9-0.8,1.4-1.2c0.5-0.3,0.8-0.5,1-0.3c0.2,0.2,0,0.6-0.2,0.8c-0.3,0.4-0.6,0.8-0.9,1.1L9.9-0.7z"/>
			</g>
			<g transform="translate(21.068 12.154)">
				<g>
					<path class="st3" d="M-11.7-13c0.7,0.8,0.5,2-0.2,2.6c-0.8,0.7-2,0.5-2.6-0.2c-0.7-0.8-0.5-2,0.2-2.6
						C-13.5-13.9-12.4-13.8-11.7-13z"/>
				</g>
			</g>
			<g>
				<path class="st3" d="M6.4,2.7L6.1,2.4l0.2-0.2c0.5-0.5,1.2-1,1.8-1.7c0.6-0.6,1.2-1.2,1.6-1.7l0.2-0.2l0.4,0.3l-0.2,0.2
					c-0.5,0.5-1,1.2-1.7,1.8C7.8,1.5,7.2,2.1,6.6,2.6L6.4,2.7z"/>
			</g>
			<g>
				<path class="st3" d="M12.2,0.4c0,0.4-0.3,0.8-0.8,0.8c-0.4,0-0.8-0.3-0.8-0.8s0.3-0.8,0.8-0.8c0,0,0,0,0,0
					C11.9-0.4,12.2-0.1,12.2,0.4z"/>
			</g>
			<g>
				<path class="st3" d="M-1.2,0.4c0,0.3-0.2,0.5-0.5,0.5s-0.5-0.2-0.5-0.5c0-0.3,0.2-0.5,0.5-0.5c0,0,0,0,0,0
					C-1.4-0.1-1.2,0.1-1.2,0.4z"/>
			</g>
			<g>
				<path class="st3" d="M-5.5,0.4c0,0.4-0.3,0.7-0.8,0.7C-6.7,1.1-7,0.8-7,0.4c0-0.4,0.3-0.7,0.7-0.7C-5.9-0.4-5.5-0.1-5.5,0.4
					C-5.5,0.4-5.5,0.4-5.5,0.4z"/>
			</g>
			<g transform="translate(10.369 13.062)">
				<g>
					<path class="st3" d="M-13.1-12.7c0,0.5-0.4,1-1,1c-0.5,0-1-0.4-1-1c0-0.5,0.4-1,1-1c0,0,0,0,0,0
						C-13.5-13.7-13.1-13.2-13.1-12.7z"/>
				</g>
			</g>
			<g>
				<path class="st3" d="M5.3,0.4c0,1.6-1.3,2.9-2.9,2.9c-1.6,0-2.9-1.3-2.9-2.9c0-1.6,1.3-2.9,2.9-2.9S5.3-1.2,5.3,0.4L5.3,0.4z"/>
			</g>
			<g>
				<path class="st3" d="M14.5,0.4c0,0.4-0.3,0.7-0.7,0.7c-0.4,0-0.7-0.3-0.7-0.7s0.3-0.7,0.7-0.7c0,0,0,0,0,0
					C14.2-0.3,14.5,0,14.5,0.4z"/>
			</g>
			<g transform="translate(7.27 0)">
				<g>
					<path class="st4" d="M6.5-5.8H6.2l-21.3,0h-0.2v-0.2l0-4.7V-11h0.2l7.2,0l0-2.7v-0.2h0.2l6.8,0h0.2l0,0.2l0,2.7l6.8,0h0.2v0.2
						l0,4.7V-5.8z M-4.2-12.5c-0.4,0-0.7,0.3-0.7,0.7c0,0.4,0.3,0.7,0.7,0.7s0.7-0.3,0.7-0.7C-3.5-12.2-3.8-12.5-4.2-12.5z"/>
				</g>
				<g>
					<path class="st2" d="M-7.6-13.7l0,2.9l-7.4,0l0,4.7l21.3,0l0-4.7l-7,0l0-2.9L-7.6-13.7 M-4.2-10.8c-0.5,0-0.9-0.4-0.9-0.9
						c0-0.5,0.4-0.9,0.9-0.9s0.9,0.4,0.9,0.9C-3.2-11.3-3.7-10.8-4.2-10.8 M-8.1-14.2l7.8,0l0,2.9l7,0l0,5.6l-22.2,0l0-5.6l7.4,0
						L-8.1-14.2z M-4.2-11.3c0.3,0,0.5-0.2,0.5-0.5c0-0.3-0.2-0.5-0.5-0.5c-0.3,0-0.5,0.2-0.5,0.5C-4.6-11.5-4.4-11.3-4.2-11.3z"/>
				</g>
			</g>
			<g>
				<path class="st5" d="M-2.4,11.3l-4.6,0l0-4.6l4.6,0L-2.4,11.3z M-5.8,10.1l2.2,0l0-2.2l-2.2,0L-5.8,10.1z"/>
			</g>
			<g>
				<path class="st5" d="M13.7,9.5c-0.1,0-0.1,0-0.2,0l-14.2,0C-1,9.6-1.3,9.3-1.3,9c0-0.3,0.3-0.6,0.6-0.6l14.2,0
					c0.3,0,0.6,0.3,0.6,0.6C14.1,9.2,14,9.4,13.7,9.5z"/>
			</g>
			<g>
				<path class="st5" d="M-2.4,16.9l-4.6,0l0-4.6l4.6,0L-2.4,16.9z M-5.8,15.7l2.2,0l0-2.2l-2.2,0L-5.8,15.7z"/>
			</g>
			<g>
				<path class="st5" d="M13.7,15.1c-0.1,0-0.1,0-0.2,0l-14.2,0c-0.3,0-0.6-0.3-0.6-0.6c0-0.3,0.3-0.6,0.6-0.6l14.2,0
					c0.3,0,0.6,0.3,0.6,0.6C14.1,14.8,14,15,13.7,15.1z"/>
			</g>
			<g>
				<path class="st5" d="M-2.4,22.5l-4.6,0l0-4.6l4.6,0L-2.4,22.5z M-5.8,21.3l2.2,0l0-2.2l-2.2,0L-5.8,21.3z"/>
			</g>
			<g>
				<path class="st5" d="M13.7,20.7c-0.1,0-0.1,0-0.2,0l-14.2,0c-0.3,0-0.6-0.3-0.6-0.6c0-0.3,0.3-0.6,0.6-0.6l14.2,0
					c0.3,0,0.6,0.3,0.6,0.6C14.1,20.4,14,20.6,13.7,20.7z"/>
			</g>
			<g>
				<path class="st5" d="M-2.4,28.1l-4.6,0l0-4.6l4.6,0L-2.4,28.1z M-5.8,26.9l2.2,0l0-2.2l-2.2,0L-5.8,26.9z"/>
			</g>
			<g>
				<path class="st5" d="M13.7,26.3c-0.1,0-0.1,0-0.2,0l-14.2,0c-0.3,0-0.6-0.3-0.6-0.6c0-0.3,0.3-0.6,0.6-0.6l14.2,0
					c0.3,0,0.6,0.3,0.6,0.6C14.1,26,14,26.2,13.7,26.3z"/>
			</g>
		</g>
	</g>
</g>
</svg>
